# xmcd CD database file
#
# Track frame offsets:
#	150
#	15862
#	37790
#	54162
#	70505
#	87800
#	106575
#	127245
#	143025
#	159750
#	176862
#	190667
#	206777
#
# Disc length: 2962 seconds
#
# Revision: 1
# Processed by: cddbd v1.5PL3 Copyright (c) Steve Scherf et al.
# Submitted via: CDex 1.51
#
DISCID=980b900d
DTITLE=Astral Doors - Cloudbreaker
DYEAR=2003
DGENRE=Hard Rock
TTITLE0=Cloudbreaker
TTITLE1=Of The Son And The Father
TTITLE2=Hungry People
TTITLE3=Slay The Dragon
TTITLE4=Ocean Of Sand
TTITLE5=In Prison For Life
TTITLE6=The Trojan Horse
TTITLE7=Burn Down The Wheel
TTITLE8=Night Of The Witch
TTITLE9=Rainbow In Your Mind
TTITLE10=Man On The Rock
TTITLE11=Far Beyond The Astral Doors (Japan Bouns)
TTITLE12=Moonstruck Woman (Japan Bouns)
EXTD=YEAR: 2003
EXTT0=
EXTT1=
EXTT2=
EXTT3=
EXTT4=
EXTT5=
EXTT6=
EXTT7=
EXTT8=
EXTT9=
EXTT10=
EXTT11=
EXTT12=
PLAYORDER=
